<?xml version="1.0" encoding="UTF-8" standalone="no"?>
<!DOCTYPE svg PUBLIC "-//W3C//DTD SVG 1.0//EN" "http://www.w3.org/TR/2001/PR-SVG-20010719/DTD/svg10.dtd">
<svg width="36cm" height="18cm" viewBox="317 589 707 350" xmlns="http://www.w3.org/2000/svg" xmlns:xlink="http://www.w3.org/1999/xlink">
  <image x="318.1" y="590.6" width="208.946" height="196.827" xlink:href="file:///home/ulfr/Documents/SecDevOps/CH02/firefox_logo.png"/>
  <g>
    <rect style="fill: #ffffff" x="653.409" y="838.981" width="71.95" height="98.6836"/>
    <path style="fill: #ffffff" d="M 653.409,838.981 A 20,20 0 0 0 633.409,858.981 L 653.409,858.981 z"/>
    <path style="fill: #ffffff" d="M 745.359,858.981 A 20,20 0 0 0 725.359,838.981 L 725.359,858.981 z"/>
    <rect style="fill: #ffffff" x="633.409" y="858.981" width="111.95" height="58.6836"/>
    <path style="fill: #ffffff" d="M 633.409,917.664 A 20,20 0 0 0 653.409,937.664 L 653.409,917.664 z"/>
    <path style="fill: #ffffff" d="M 725.359,937.664 A 20,20 0 0 0 745.359,917.664 L 725.359,917.664 z"/>
    <line style="fill: none; fill-opacity:0; stroke-width: 2; stroke: #000000" x1="653.409" y1="838.981" x2="725.359" y2="838.981"/>
    <line style="fill: none; fill-opacity:0; stroke-width: 2; stroke: #000000" x1="653.409" y1="937.664" x2="725.359" y2="937.664"/>
    <path style="fill: none; fill-opacity:0; stroke-width: 2; stroke: #000000" d="M 653.409,838.981 A 20,20 0 0 0 633.409,858.981"/>
    <path style="fill: none; fill-opacity:0; stroke-width: 2; stroke: #000000" d="M 745.359,858.981 A 20,20 0 0 0 725.359,838.981"/>
    <line style="fill: none; fill-opacity:0; stroke-width: 2; stroke: #000000" x1="633.409" y1="858.981" x2="633.409" y2="917.664"/>
    <line style="fill: none; fill-opacity:0; stroke-width: 2; stroke: #000000" x1="745.359" y1="858.981" x2="745.359" y2="917.664"/>
    <path style="fill: none; fill-opacity:0; stroke-width: 2; stroke: #000000" d="M 633.409,917.664 A 20,20 0 0 0 653.409,937.664"/>
    <path style="fill: none; fill-opacity:0; stroke-width: 2; stroke: #000000" d="M 725.359,937.664 A 20,20 0 0 0 745.359,917.664"/>
    <text font-size="12.8" style="fill: #000000;text-anchor:middle;font-family:sans-serif;font-style:normal;font-weight:normal" x="689.384" y="892.222">
      <tspan x="689.384" y="892.222">facebook.com</tspan>
    </text>
  </g>
  <g>
    <rect style="fill: #ffffff" x="939.298" y="638.714" width="63.1" height="98.6836"/>
    <path style="fill: #ffffff" d="M 939.298,638.714 A 20,20 0 0 0 919.298,658.714 L 939.298,658.714 z"/>
    <path style="fill: #ffffff" d="M 1022.4,658.714 A 20,20 0 0 0 1002.4,638.714 L 1002.4,658.714 z"/>
    <rect style="fill: #ffffff" x="919.298" y="658.714" width="103.1" height="58.6836"/>
    <path style="fill: #ffffff" d="M 919.298,717.397 A 20,20 0 0 0 939.298,737.397 L 939.298,717.397 z"/>
    <path style="fill: #ffffff" d="M 1002.4,737.397 A 20,20 0 0 0 1022.4,717.397 L 1002.4,717.397 z"/>
    <line style="fill: none; fill-opacity:0; stroke-width: 2; stroke: #000000" x1="939.298" y1="638.714" x2="1002.4" y2="638.714"/>
    <line style="fill: none; fill-opacity:0; stroke-width: 2; stroke: #000000" x1="939.298" y1="737.397" x2="1002.4" y2="737.397"/>
    <path style="fill: none; fill-opacity:0; stroke-width: 2; stroke: #000000" d="M 939.298,638.714 A 20,20 0 0 0 919.298,658.714"/>
    <path style="fill: none; fill-opacity:0; stroke-width: 2; stroke: #000000" d="M 1022.4,658.714 A 20,20 0 0 0 1002.4,638.714"/>
    <line style="fill: none; fill-opacity:0; stroke-width: 2; stroke: #000000" x1="919.298" y1="658.714" x2="919.298" y2="717.397"/>
    <line style="fill: none; fill-opacity:0; stroke-width: 2; stroke: #000000" x1="1022.4" y1="658.714" x2="1022.4" y2="717.397"/>
    <path style="fill: none; fill-opacity:0; stroke-width: 2; stroke: #000000" d="M 919.298,717.397 A 20,20 0 0 0 939.298,737.397"/>
    <path style="fill: none; fill-opacity:0; stroke-width: 2; stroke: #000000" d="M 1002.4,737.397 A 20,20 0 0 0 1022.4,717.397"/>
    <text font-size="12.8" style="fill: #000000;text-anchor:middle;font-family:sans-serif;font-style:normal;font-weight:normal" x="970.848" y="691.955">
      <tspan x="970.848" y="691.955">badsite.net</tspan>
    </text>
  </g>
  <g>
    <line style="fill: none; fill-opacity:0; stroke-width: 2; stroke: #000000" x1="529.051" y1="768.553" x2="624.611" y2="839.937"/>
    <polygon style="fill: #000000" points="630.62,844.425 619.616,842.447 624.611,839.937 625.601,834.435 "/>
    <polygon style="fill: none; fill-opacity:0; stroke-width: 2; stroke: #000000" points="630.62,844.425 619.616,842.447 624.611,839.937 625.601,834.435 "/>
  </g>
  <text font-size="12.8" style="fill: #000000;text-anchor:start;font-family:sans-serif;font-style:normal;font-weight:normal" x="593" y="634">
    <tspan x="593" y="634"></tspan>
  </text>
  <g>
    <line style="fill: none; fill-opacity:0; stroke-width: 2; stroke: #000000" x1="529.022" y1="688.827" x2="908.565" y2="688.164"/>
    <polygon style="fill: #000000" points="916.065,688.151 906.073,693.169 908.565,688.164 906.056,683.169 "/>
    <polygon style="fill: none; fill-opacity:0; stroke-width: 2; stroke: #000000" points="916.065,688.151 906.073,693.169 908.565,688.164 906.056,683.169 "/>
  </g>
  <text font-size="12.8" style="fill: #000000;text-anchor:start;font-family:sans-serif;font-style:normal;font-weight:normal" x="554.358" y="619.45">
    <tspan x="554.358" y="619.45">GET /index.html</tspan>
    <tspan x="554.358" y="635.45"></tspan>
    <tspan x="554.358" y="651.45">&lt;html&gt;</tspan>
    <tspan x="554.358" y="667.45">    &lt;body&gt;</tspan>
    <tspan x="554.358" y="683.45">        &lt;img src="https://facebook.com/delete/img/2" /&gt;</tspan>
    <tspan x="554.358" y="699.45">    &lt;/body&gt;</tspan>
    <tspan x="554.358" y="715.45">&lt;/html&gt;</tspan>
  </text>
  <text font-size="12.8" style="fill: #000000;text-anchor:start;font-family:sans-serif;font-style:normal;font-weight:normal" x="522" y="908">
    <tspan x="522" y="908"></tspan>
  </text>
  <text font-size="12.8" style="fill: #000000;text-anchor:start;font-family:sans-serif;font-style:normal;font-weight:normal" x="510" y="888">
    <tspan x="510" y="888"></tspan>
  </text>
  <text font-size="12.8" style="fill: #000000;text-anchor:start;font-family:sans-serif;font-style:normal;font-weight:normal" x="553" y="933">
    <tspan x="553" y="933"></tspan>
  </text>
  <text font-size="16.9333" style="fill: #000000;text-anchor:start;font-family:sans-serif;font-style:normal;font-weight:700" x="525.612" y="682.651">
    <tspan x="525.612" y="682.651">(1)</tspan>
  </text>
  <text font-size="16.9333" style="fill: #000000;text-anchor:start;font-family:sans-serif;font-style:normal;font-weight:700" x="543.981" y="817.503">
    <tspan x="543.981" y="817.503">(2)</tspan>
  </text>
  <text font-size="12.8" style="fill: #000000;text-anchor:start;font-family:sans-serif;font-style:normal;font-weight:normal" x="547" y="919">
    <tspan x="547" y="919"></tspan>
  </text>
  <text font-size="12.8" style="fill: #000000;text-anchor:start;font-family:sans-serif;font-style:normal;font-weight:normal" x="591.863" y="796.037">
    <tspan x="591.863" y="796.037">GET /delete/img/2</tspan>
    <tspan x="591.863" y="812.037">Cookie: MySecretSession</tspan>
  </text>
  <text font-size="12.8" style="fill: #000000;text-anchor:start;font-family:sans-serif;font-style:normal;font-weight:normal" x="671.674" y="911.3">
    <tspan x="671.674" y="911.3"></tspan>
  </text>
  <text font-size="12.7998" style="fill: #000000;text-anchor:start;font-family:sans-serif;font-style:normal;font-weight:normal" x="689.384" y="888.322">
    <tspan x="689.384" y="888.322"></tspan>
  </text>
  <text font-size="12.7998" style="fill: #000000;text-anchor:start;font-family:sans-serif;font-style:normal;font-weight:normal" x="572.275" y="833.554">
    <tspan x="572.275" y="833.554"></tspan>
  </text>
  <text font-size="12.7998" style="fill: #000000;text-anchor:start;font-family:sans-serif;font-style:normal;font-weight:normal" x="681.38" y="676.285">
    <tspan x="681.38" y="676.285"></tspan>
  </text>
</svg>
