<svg version="1.1" xmlns="http://www.w3.org/2000/svg" xmlns:xlink="http://www.w3.org/1999/xlink" width="1060" height="520"><style xmlns="http://www.w3.org/1999/xhtml"></style><defs/><g transform="translate(0,0)"><g><rect fill="#FFFFFF" stroke="none" x="0" y="0" width="1060" height="520"/></g><g transform="translate(0,0) matrix(1,0,0,1,10,10)"><g><g transform="translate(0,0) scale(10.3,4.9)"><g><path fill="#FFFFFF" stroke="none" d="M 0 0 L 100 0 Q 100 0 100 0 L 100 100 Q 100 100 100 100 L 0 100 Q 0 100 0 100 L 0 0 Q 0 0 0 0 Z"/><g transform="scale(0.0970873786407767,0.2040816326530612)"><path fill="none" stroke="#BBBBBB" d="M 0 0 L 1030 0 Q 1030 0 1030 0 L 1030 490.00000000000006 Q 1030 490.00000000000006 1030 490.00000000000006 L 0 490.00000000000006 Q 0 490.00000000000006 0 490.00000000000006 L 0 0 Q 0 0 0 0 Z" stroke-miterlimit="10" stroke-width="2"/></g></g></g></g></g><g transform="translate(0,0) matrix(1,0,0,1,10,10)"><g><g transform="translate(0,0) scale(10.3,0.4)"><g><path fill="#EEEEEE" stroke="none" d="M 0 0 L 100 0 Q 100 0 100 0 L 100 100 Q 100 100 100 100 L 0 100 Q 0 100 0 100 L 0 0 Q 0 0 0 0 Z"/><g transform="scale(0.0970873786407767,2.5)"><path fill="none" stroke="#BBBBBB" d="M 0 0 L 1030 0 Q 1030 0 1030 0 L 1030 40 Q 1030 40 1030 40 L 0 40 Q 0 40 0 40 L 0 0 Q 0 0 0 0 Z" stroke-miterlimit="10" stroke-width="2"/></g></g></g></g></g><g transform="translate(0,0) matrix(1,0,0,1,905,10)"><g><g transform="translate(0,0) scale(1.05,0.2)"><g><path fill="#EEEEEE" stroke="none" d="M 0 0 L 100 0 Q 100 0 100 0 L 100 100 Q 100 100 100 100 L 0 100 Q 0 100 0 100 L 0 0 Q 0 0 0 0 Z"/><g transform="scale(0.9523809523809523,5)"><path fill="none" stroke="#BBBBBB" d="M 0 0 L 105 0 Q 105 0 105 0 L 105 20 Q 105 20 105 20 L 0 20 Q 0 20 0 20 L 0 0 Q 0 0 0 0 Z" stroke-miterlimit="10" stroke-width="2"/></g></g></g></g></g><g transform="translate(0,0) matrix(1,0,0,1,915,18)"><g><g transform="translate(0,0) scale(0.8333333333333334,2.5)"><g><path fill="rgb(0,0,0)" stroke="#BBBBBB" d="M 0 2 L 12 2" fill-opacity="0" stroke-miterlimit="10"/></g></g></g></g><g transform="translate(0,0) matrix(1,0,0,1,935,10)"><g><g transform="translate(0,0) scale(0.3,0.2)"><g><path fill="#EEEEEE" stroke="none" d="M 0 0 L 100 0 Q 100 0 100 0 L 100 100 Q 100 100 100 100 L 0 100 Q 0 100 0 100 L 0 0 Q 0 0 0 0 Z"/><g transform="scale(3.3333333333333335,5)"><path fill="none" stroke="#BBBBBB" d="M 0 0 L 30 0 Q 30 0 30 0 L 30 20 Q 30 20 30 20 L 0 20 Q 0 20 0 20 L 0 0 Q 0 0 0 0 Z" stroke-miterlimit="10" stroke-width="2"/></g></g></g></g></g><g transform="translate(0,0) matrix(1,0,0,1,945,15)"><g><g transform="translate(0,0) scale(0.8945343948474819,0.9090909090909091) translate(-0.821,-1)"><g><path fill="rgb(0,0,0)" stroke="#BBBBBB" d="M 1 1 L 12 1 Q 12 1 12 1 L 12 12 Q 12 12 12 12 L 1 12 Q 1 12 1 12 L 1 1 Q 1 1 1 1 Z" fill-opacity="0" stroke-miterlimit="10" stroke-width="2"/></g><g><path fill="#BBBBBB" stroke="rgb(0,0,0)" d="M 0.821 1 L 11.821 1 Q 11.821 1 11.821 1 L 11.821 4.278 Q 11.821 4.278 11.821 4.278 L 0.821 4.278 Q 0.821 4.278 0.821 4.278 L 0.821 1 Q 0.821 1 0.821 1 Z" stroke-opacity="0" stroke-miterlimit="10"/></g></g></g></g><g transform="translate(0,0) matrix(1,0,0,1,983,15)"><g><g transform="translate(0,0) scale(1.001201441730076,1.000300090027008) translate(-429.054,-9.325)"><g><path fill="#BBBBBB" stroke="rgb(0,0,0)" d="M 438.854 17.605 C 438.979 17.732 439.042 17.876 439.042 18.038 C 439.042 18.201 438.979 18.346 438.854 18.471 L 438.203 19.134 C 438.078 19.26 437.932 19.322 437.762 19.322 C 437.594 19.322 437.448 19.26 437.326 19.134 L 434.049 15.852 L 430.759 19.134 C 430.633 19.26 430.488 19.322 430.326 19.322 C 430.163 19.322 430.018 19.26 429.893 19.134 L 429.242 18.485 C 429.116 18.36 429.054 18.213 429.054 18.046 C 429.054 17.88 429.116 17.734 429.242 17.607 L 432.547 14.291 L 429.242 11.041 C 429.116 10.914 429.054 10.769 429.054 10.602 C 429.054 10.435 429.116 10.29 429.242 10.164 L 429.893 9.513 C 430.018 9.387 430.165 9.325 430.335 9.325 C 430.503 9.325 430.649 9.387 430.77 9.513 L 434.048 12.79 L 437.325 9.513 C 437.45 9.387 437.597 9.325 437.765 9.325 C 437.93 9.325 438.077 9.387 438.202 9.513 L 438.853 10.164 C 438.978 10.289 439.041 10.435 439.041 10.605 C 439.041 10.773 438.978 10.919 438.853 11.041 L 435.548 14.357 L 438.854 17.605 L 438.854 17.605 Z" stroke-opacity="0" stroke-miterlimit="10"/></g></g></g></g><g transform="matrix(1,0,0,1,-28,16)"><g><g><rect fill="rgb(0,0,0)" stroke="none" x="0" y="0" width="647" height="36" fill-opacity="0"/></g></g><g><g><rect fill="rgb(0,0,0)" stroke="none" x="0" y="0" width="647" height="36" fill-opacity="0"/></g></g><g><g><rect fill="rgb(0,0,0)" stroke="none" x="57.649993896484375" y="9.933334350585938" width="532" height="15" fill-opacity="0"/></g></g><g><g><rect fill="rgb(0,0,0)" stroke="none" x="57.649993896484375" y="9.933334350585938" width="532" height="15" fill-opacity="0"/></g></g><g><g><rect fill="rgb(0,0,0)" stroke="none" x="57.649993896484375" y="-0.3333282470703125" width="532" height="37" fill-opacity="0"/></g><text fill="rgb(102, 102, 102)" stroke="none" font-family="&quot;Courier&quot;" font-size="36px" font-style="normal" font-weight="700" text-decoration="" line-height="36px" x="57.649993896484375" y="22.666671752929688">Origin</text><text fill="rgb(102, 102, 102)" stroke="none" font-family="&quot;Courier&quot;" font-size="36px" font-style="normal" font-weight="700" text-decoration="" line-height="36px" x="185.25" y="22.666671752929688">:</text><text fill="rgb(102, 102, 102)" stroke="none" font-family="&quot;Courier&quot;" font-size="36px" font-style="normal" font-weight="700" text-decoration="" line-height="36px" x="227.78334045410156" y="22.666671752929688">https</text><text fill="rgb(102, 102, 102)" stroke="none" font-family="&quot;Courier&quot;" font-size="36px" font-style="normal" font-weight="700" text-decoration="" line-height="36px" x="334.1166687011719" y="22.666671752929688">://</text><text fill="rgb(102, 102, 102)" stroke="none" font-family="&quot;Courier&quot;" font-size="36px" font-style="normal" font-weight="700" text-decoration="" line-height="36px" x="397.91668701171875" y="22.666671752929688">myapp</text><text fill="rgb(102, 102, 102)" stroke="none" font-family="&quot;Courier&quot;" font-size="36px" font-style="normal" font-weight="700" text-decoration="" line-height="36px" x="504.25" y="22.666671752929688">.</text><text fill="rgb(102, 102, 102)" stroke="none" font-family="&quot;Courier&quot;" font-size="36px" font-style="normal" font-weight="700" text-decoration="" line-height="36px" x="525.5166625976562" y="22.666671752929688">com</text></g><g><g/></g></g><g transform="translate(0,0) matrix(1,0,0,1,810,310)"><g><g transform="translate(0,0) scale(1,0.9999933333777774) translate(-83.999,75.756)"><g><path fill="#EEEEEE" stroke="#BBBBBB" d="M 83.999 -75.756 L 283.999 -75.756 Q 283.999 -75.756 283.999 -75.756 L 283.999 74.244 Q 283.999 74.244 283.999 74.244 L 83.999 74.244 Q 83.999 74.244 83.999 74.244 L 83.999 -75.756 Q 83.999 -75.756 83.999 -75.756 Z" stroke-miterlimit="10" stroke-width="2"/></g><g><path fill="rgb(0,0,0)" stroke="#FFFFFF" d="M 83.999 -46.256 L 283.999 -46.256" fill-opacity="0" stroke-miterlimit="10"/></g><g><path fill="rgb(0,0,0)" stroke="#FFFFFF" d="M 83.999 -16.256 L 283.999 -16.256" fill-opacity="0" stroke-miterlimit="10"/></g><g><path fill="rgb(0,0,0)" stroke="#FFFFFF" d="M 83.999 13.744 L 283.999 13.744" fill-opacity="0" stroke-miterlimit="10"/></g><g><path fill="rgb(0,0,0)" stroke="#FFFFFF" d="M 83.999 43.744 L 283.999 43.744" fill-opacity="0" stroke-miterlimit="10"/></g><g><path fill="#AAAAAA" stroke="rgb(0,0,0)" d="M 93.999 13.994 L 113.999 13.994 Q 113.999 13.994 113.999 13.994 L 113.999 74.244 Q 113.999 74.244 113.999 74.244 L 93.999 74.244 Q 93.999 74.244 93.999 74.244 L 93.999 13.994 Q 93.999 13.994 93.999 13.994 Z" stroke-opacity="0" stroke-miterlimit="10"/></g><g><path fill="#FFFFFF" stroke="rgb(0,0,0)" d="M 253.999 26.694 L 273.999 26.694 Q 273.999 26.694 273.999 26.694 L 273.999 74.244 Q 273.999 74.244 273.999 74.244 L 253.999 74.244 Q 253.999 74.244 253.999 74.244 L 253.999 26.694 Q 253.999 26.694 253.999 26.694 Z" stroke-opacity="0" stroke-miterlimit="10"/></g><g><path fill="#777777" stroke="rgb(0,0,0)" d="M 133.999 -60.5 L 153.999 -60.5 Q 153.999 -60.5 153.999 -60.5 L 153.999 74.244 Q 153.999 74.244 153.999 74.244 L 133.999 74.244 Q 133.999 74.244 133.999 74.244 L 133.999 -60.5 Q 133.999 -60.5 133.999 -60.5 Z" stroke-opacity="0" stroke-miterlimit="10"/></g><g><path fill="#333333" stroke="rgb(0,0,0)" d="M 173.999 -16.256 L 193.999 -16.256 Q 193.999 -16.256 193.999 -16.256 L 193.999 74.244 Q 193.999 74.244 193.999 74.244 L 173.999 74.244 Q 173.999 74.244 173.999 74.244 L 173.999 -16.256 Q 173.999 -16.256 173.999 -16.256 Z" stroke-opacity="0" stroke-miterlimit="10"/></g><g><path fill="#CCCCCC" stroke="rgb(0,0,0)" d="M 213.999 3.912 L 233.999 3.912 Q 233.999 3.912 233.999 3.912 L 233.999 74.245 Q 233.999 74.245 233.999 74.245 L 213.999 74.245 Q 213.999 74.245 213.999 74.245 L 213.999 3.912 Q 213.999 3.912 213.999 3.912 Z" stroke-opacity="0" stroke-miterlimit="10"/></g><g><path fill="rgb(0,0,0)" stroke="#BBBBBB" d="M 83.999 -75.756 L 283.999 -75.756 Q 283.999 -75.756 283.999 -75.756 L 283.999 74.244 Q 283.999 74.244 283.999 74.244 L 83.999 74.244 Q 83.999 74.244 83.999 74.244 L 83.999 -75.756 Q 83.999 -75.756 83.999 -75.756 Z" fill-opacity="0" stroke-miterlimit="10"/></g></g></g></g><g transform="translate(0,0) matrix(1,0,0,1,170,325)"><g><g transform="translate(0,0) scale(2,2)"><g><path fill="#BCBCBB" stroke="rgb(0,0,0)" d="M 10 0 C 4.478 0 0 4.479 0 10 C 0 15.521 4.478 20 10 20 C 15.521 20 20 15.521 20 10 C 20 4.479 15.521 0 10 0 Z M 10 18.125 C 5.514 18.125 1.875 14.487 1.875 10 C 1.875 5.514 5.514 1.875 10 1.875 C 14.487 1.875 18.125 5.514 18.125 10 C 18.125 14.487 14.487 18.125 10 18.125 Z M 7.5 5.625 L 15 10 L 7.5 14.375 L 7.5 5.625 Z" stroke-opacity="0" stroke-miterlimit="10"/></g></g></g></g><g transform="translate(0,0) matrix(1,0,0,1,810,120)"><g><g transform="translate(0,0) scale(1,1) translate(-84.5,75.257)"><g><g><path fill="#EAE5DC" stroke="rgb(0,0,0)" d="M 84.93 -75.256 L 285.44 -75.256 L 285.074 74.611 L 84.564 74.611 L 84.93 -75.256 Z" stroke-opacity="0" stroke-miterlimit="10"/></g></g><g><path fill="#FFFFFF" stroke="#CEC9C0" d="M 242.093 33.604 L 242.093 -9.468 L 284.85 -9.468 L 284.85 -13.468 L 242.093 -13.468 L 242.093 -56.676 L 284.85 -56.676 L 284.85 -60.676 L 242.093 -60.676 L 242.093 -75.257 L 238.093 -75.257 L 238.093 -60.676 L 217.181 -60.676 L 217.181 -75.257 L 213.181 -75.257 L 213.181 -60.676 L 192.267 -60.676 L 192.267 -75.257 L 188.267 -75.257 L 188.267 -60.676 L 167.243 -60.676 L 167.292 -75.257 L 163.292 -75.257 L 163.243 -60.676 L 142.421 -60.676 L 142.47 -75.257 L 138.47 -75.257 L 138.421 -60.676 L 84.884 -60.676 L 84.884 -56.676 L 138.408 -56.676 L 138.105 33.603 L 84.5 33.603 L 84.5 37.603 L 138.105 37.603 L 138.105 55.706 L 84.5 55.706 L 84.5 59.706 L 138.105 59.706 L 138.105 74.61 L 142.105 74.61 L 142.105 37.605 L 162.926 37.605 L 162.926 54 C 160.113 54.877 158.072 57.5 158.072 60.602 C 158.072 64.42 161.168 67.516 164.986 67.516 C 168.804 67.516 171.9 64.419 171.9 60.601 C 171.9 57.457 169.799 54.808 166.926 53.968 L 166.926 37.605 L 188.268 37.605 L 188.268 74.611 L 192.268 74.611 L 192.268 37.605 L 213.182 37.605 L 213.182 74.611 L 217.182 74.611 L 217.182 37.605 L 238.094 37.605 L 238.094 74.611 L 242.094 74.611 L 242.094 37.605 L 285.011 37.605 L 285.011 37.604 L 285.011 33.604 L 242.093 33.604 Z M 238.093 -56.675 L 238.093 -13.467 L 217.181 -13.467 L 217.181 -56.675 L 238.093 -56.675 Z M 213.182 -56.675 L 213.182 -13.467 L 192.268 -13.467 L 192.268 -56.675 L 213.182 -56.675 Z M 188.268 -56.675 L 188.268 -13.467 L 167.085 -13.467 L 167.23 -56.675 L 188.268 -56.675 Z M 142.105 33.604 L 142.408 -56.675 L 163.23 -56.675 L 163.085 -13.467 L 163.078 -13.467 L 163.078 -11.451 L 162.927 33.605 L 142.105 33.605 Z M 166.927 33.604 L 167.072 -9.468 L 188.268 -9.468 L 188.268 33.604 L 166.927 33.604 Z M 192.268 33.604 L 192.268 -9.468 L 213.182 -9.468 L 213.182 33.604 L 192.268 33.604 Z M 217.182 33.604 L 217.182 -9.468 L 238.094 -9.468 L 238.094 33.604 L 217.182 33.604 Z" stroke-miterlimit="10"/></g><g><g><g><g><g><g><path fill="#FF9E18" stroke="#EA8B1B" d="M 140.272 13.605 C 134.482 14.269 129.689 16.458 125.985 20.14 C 120.034 26.054 118.797 33.894 118.567 37.729 C 118.54 38.182 118.526 38.579 118.521 52.033 L 118.887 -75.256 L 110.887 -75.256 L 110.521 74.611 L 122.518 74.611 C 122.518 38.94 122.527 38.499 122.558 37.967 C 122.749 34.688 123.785 27.966 128.805 22.977 C 131.822 19.978 135.78 18.176 140.605 17.596 C 141.811 17.451 243.581 17.382 284.986 17.39 L 285.009 13.39 C 243.488 13.382 141.599 13.454 140.272 13.605 L 140.272 13.605 Z" stroke-miterlimit="10"/></g></g></g></g><g><g><g><path fill="#FF9E18" stroke="#EA8B1B" d="M 284.85 13.32 L 284.84 5.32 L 92.153 5.43 C 96.377 4.37 99.994 2.405 102.922 -0.506 C 109.134 -6.68 110.209 -14.953 110.365 -18.576 C 110.383 -18.993 110.755 -69.216 110.755 -75.172 L 106.755 -75.172 C 106.755 -69.173 106.38 -18.867 106.349 -18.34 C 106.159 -15.064 105.126 -8.336 100.102 -3.343 C 96.331 0.405 91.09 2.284 84.592 2.362 L 84.568 6.362 C 84.583 6.362 84.596 6.36 84.611 6.36 L 84.62 13.439 L 284.85 13.32 Z" stroke-miterlimit="10"/></g></g></g><g><g><g><path fill="#257BC8" stroke="rgb(0,0,0)" d="M 140.198 -16.451 C 140.198 -16.451 135.691 -11.296 130.535 -16.451 C 130.005 -14.203 122.719 -4.555 140.198 7.528 C 157.513 -4.555 150.39 -14.203 149.859 -16.451 C 144.703 -11.295 140.198 -16.451 140.198 -16.451 L 140.198 -16.451 Z" stroke-opacity="0" stroke-miterlimit="10"/></g><g><path fill="#DF6460" stroke="rgb(0,0,0)" d="M 151.521 -10.491 C 151.466 -13.346 150.384 -14.227 149.859 -16.45 C 144.703 -11.295 140.198 -16.45 140.198 -16.45 C 140.198 -16.45 135.691 -11.295 130.535 -16.45 C 130.01 -14.226 128.928 -13.343 128.874 -10.486 L 151.521 -10.491 Z" stroke-opacity="0" stroke-miterlimit="10"/></g></g></g><g><g><text fill="#FFFFFF" stroke="none" font-family="Arial" font-size="11px" font-style="normal" font-weight="normal" text-decoration="" line-height="normal" x="137.1387" y="1.5386">1</text><text fill="none" stroke="rgb(0,0,0)" font-family="Arial" font-size="11px" font-style="normal" font-weight="normal" text-decoration="" line-height="normal" x="137.1387" y="1.5386" stroke-opacity="0" stroke-miterlimit="10">1</text></g></g></g><g><path fill="rgb(0,0,0)" stroke="#FFFFFF" d="M 128.874 -9.486 L 151.521 -9.486" fill-opacity="0" stroke-miterlimit="10" stroke-width="2"/></g></g><g><path fill="rgb(0,0,0)" stroke="#BBBBBB" d="M 84.866 -75.256 L 285.376 -75.256 L 285.01 74.611 L 84.5 74.611 L 84.866 -75.256 Z" fill-opacity="0" stroke-miterlimit="10" stroke-width="2"/></g></g></g></g><g transform="translate(0,0) matrix(1,0,0,1,30,260)"><g><g transform="translate(0,0) scale(3.2,2)"><g><path fill="#FFFFFF" stroke="none" d="M 0 0 L 100 0 Q 100 0 100 0 L 100 100 Q 100 100 100 100 L 0 100 Q 0 100 0 100 L 0 0 Q 0 0 0 0 Z"/><g transform="scale(0.3125,0.5)"><path fill="none" stroke="#BBBBBB" d="M 0 0 L 320 0 Q 320 0 320 0 L 320 200 Q 320 200 320 200 L 0 200 Q 0 200 0 200 L 0 0 Q 0 0 0 0 Z" stroke-miterlimit="10" stroke-width="2"/></g></g></g></g></g><g transform="translate(0,0) matrix(1,0,0,1,30,430)"><g><g transform="translate(0,0) scale(3.2,0.3)"><g><path fill="#FFFFFF" stroke="none" d="M 0 0 L 100 0 Q 100 0 100 0 L 100 100 Q 100 100 100 100 L 0 100 Q 0 100 0 100 L 0 0 Q 0 0 0 0 Z"/><g transform="scale(0.3125,3.3333333333333335)"><path fill="none" stroke="#BBBBBB" d="M 0 0 L 320 0 Q 320 0 320 0 L 320 30 Q 320 30 320 30 L 0 30 Q 0 30 0 30 L 0 0 Q 0 0 0 0 Z" stroke-miterlimit="10" stroke-width="2"/></g></g></g></g></g><g transform="translate(0.5,0.5) matrix(1,0,0,1,60,441)"><g><g transform="translate(0,0) scale(2.3,0.08)"><g><path fill="none" stroke="none" d="M 4 0 L 96 0 Q 100 0 100 4 L 100 96 Q 100 100 96 100 L 4 100 Q 0 100 0 96 L 0 4 Q 0 0 4 0 Z"/><g transform="scale(0.4347826086956522,12.5)"><path fill="#FFFFFF" stroke="#BBBBBB" d="M 4 0 L 225.99999999999997 0 Q 229.99999999999997 0 229.99999999999997 4 L 229.99999999999997 4 Q 229.99999999999997 8 225.99999999999997 8 L 4 8 Q 0 8 0 4 L 0 4 Q 0 0 4 0 Z" stroke-miterlimit="10"/></g></g><g><path fill="none" stroke="none" d="M 4 0 L 26 0 Q 30 0 30 4 L 30 96 Q 30 100 26 100 L 4 100 Q 0 100 0 96 L 0 4 Q 0 0 4 0 Z"/><g transform="scale(0.4347826086956522,12.5)"><path fill="#BBBBBB" stroke="#BBBBBB" d="M 4 0 L 65 0 Q 69 0 69 4 L 69 4 Q 69 8 65 8 L 4 8 Q 0 8 0 4 L 0 4 Q 0 0 4 0 Z" stroke-miterlimit="10"/></g></g></g></g></g><g transform="translate(0,0) matrix(1,0,0,1,35,435)"><g><g transform="translate(0,0) scale(1,1)"><g><path fill="#BCBCBB" stroke="rgb(0,0,0)" d="M 10 0 C 4.478 0 0 4.479 0 10 C 0 15.521 4.478 20 10 20 C 15.521 20 20 15.521 20 10 C 20 4.479 15.521 0 10 0 Z M 10 18.125 C 5.514 18.125 1.875 14.487 1.875 10 C 1.875 5.514 5.514 1.875 10 1.875 C 14.487 1.875 18.125 5.514 18.125 10 C 18.125 14.487 14.487 18.125 10 18.125 Z M 7.5 5.625 L 15 10 L 7.5 14.375 L 7.5 5.625 Z" stroke-opacity="0" stroke-miterlimit="10"/></g></g></g></g><g transform="translate(0,0) matrix(1,0,0,1,300,437)"><g><g transform="translate(0,0) scale(1,1.000006111148457) translate(0,-0.0000153144)"><g><g><path fill="#BCBCBB" stroke="rgb(0,0,0)" d="M 13.901 15.418 C 13.663 15.418 13.425 15.323 13.245 15.137 C 12.883 14.76 12.883 14.149 13.245 13.774 C 15.777 11.141 15.777 6.86 13.245 4.23 C 12.883 3.852 12.883 3.241 13.245 2.866 C 13.606 2.49 14.193 2.49 14.556 2.866 C 16.134 4.503 17 6.682 17 9.001 C 17 11.318 16.134 13.497 14.556 15.139 C 14.376 15.323 14.139 15.418 13.901 15.418 L 13.901 15.418 Z M 10.606 13.6 C 10.369 13.6 10.132 13.506 9.951 13.319 C 9.589 12.942 9.589 12.333 9.951 11.956 C 11.516 10.327 11.516 7.677 9.951 6.048 C 9.589 5.672 9.589 5.062 9.951 4.685 C 10.312 4.308 10.9 4.308 11.263 4.685 C 13.552 7.066 13.552 10.94 11.263 13.321 C 11.081 13.506 10.845 13.6 10.606 13.6 Z M 7.754 0.297 C 8.25 -0.22 8.655 -0.044 8.655 0.685 L 8.655 17.316 C 8.655 18.045 8.25 18.218 7.754 17.705 L 3.092 12.855 L 0 12.855 L 0 5.144 L 3.092 5.144 L 7.754 0.297 Z" stroke-opacity="0" stroke-miterlimit="10"/></g></g></g></g></g><g transform="translate(0,0) matrix(1,0,0,1,330,437)"><g><g transform="translate(0,0) scale(1,1)"><g><path fill="#BCBCBB" stroke="rgb(0,0,0)" d="M 16 0 L 16 6 L 13.84 3.84 L 10.528 7.152 L 8.848 5.472 L 12.16 2.16 L 10 0 L 16 0 Z M 3.84 2.16 L 7.152 5.472 L 5.47 7.152 L 2.16 3.84 L 0 6 L 0 0 L 6 0 L 3.84 2.16 Z M 13.84 12.16 L 16 10 L 16 16 L 10 16 L 12.16 13.84 L 8.848 10.528 L 10.528 8.848 L 13.84 12.16 Z M 7.152 10.527 L 3.84 13.84 L 6 16 L 0 16 L 0 10 L 2.16 12.16 L 5.472 8.848 L 7.152 10.527 Z" stroke-opacity="0" stroke-miterlimit="10"/></g></g></g></g><g transform="translate(0,0) matrix(1,0,0,1,110,100)"><g><g transform="translate(0,0) scale(1,1) translate(80.564,97.371)"><g><path fill="#EEEEEE" stroke="rgb(0,0,0)" d="M 39.436 -37.371 A 60 60 0 1 0 39.4359700000025 -37.31100000999998 Z" stroke-opacity="0" stroke-miterlimit="10"/></g><g><path fill="#AAAAAA" stroke="rgb(0,0,0)" d="M -80.21 -37.55 L -80.21 -37.55 C -80.21 -4.413 -53.347 22.45 -20.21 22.45 L -20.21 -37.55 L -80.21 -37.55 Z" stroke-opacity="0" stroke-miterlimit="10"/></g><g><path fill="#CCCCCC" stroke="rgb(0,0,0)" d="M -72.24 -67.37 L -72.24 -67.37 C -88.738 -38.631 -78.816 -1.96 -50.078 14.539 L -20.205 -37.496 L -72.24 -67.37 Z" stroke-opacity="0" stroke-miterlimit="10"/></g><g><path fill="rgb(0,0,0)" stroke="#BBBBBB" d="M 39.436 -37.371 A 60 60 0 1 0 39.4359700000025 -37.31100000999998 Z" fill-opacity="0" stroke-miterlimit="10" stroke-width="2"/></g></g></g></g><g transform="translate(0.5,0.5) matrix(1,0,0,1,390,112.93399999999997)"><g><g transform="translate(0,0) scale(1.0128285181643562,1.0083620265617315) translate(-0.0001780171,0)"><g><g><path fill="#3966A0" stroke="rgb(0,0,0)" d="M 62.176 71.979 C 62.134 58.362 55.184 48.994 43.067 45.44 C 50.425 41.258 55.403 33.353 55.403 24.302 C 55.402 10.901 44.501 0 31.101 0 C 17.702 0 6.8 10.901 6.8 24.302 C 6.8 33.385 11.812 41.314 19.212 45.484 C 7.176 49.108 0.07 58.58 0.026 71.98 C -0.045 72.514 -0.04 73.694 1 75.043 C 4.212 79.208 14.339 81.32 31.101 81.32 C 47.863 81.32 57.992 79.208 61.203 75.043 C 62.242 73.693 62.248 72.514 62.176 71.979 Z" stroke-opacity="0" stroke-miterlimit="10"/></g><g><path fill="#FFFFFF" stroke="rgb(0,0,0)" d="M 31.101 3 C 19.356 3 9.8 12.556 9.8 24.302 C 9.8 33.578 15.771 41.467 24.063 44.383 C 26.27 45.159 28.632 45.604 31.101 45.604 C 33.587 45.604 35.966 45.153 38.187 44.366 C 46.455 41.436 52.402 33.561 52.402 24.303 C 52.402 12.556 42.847 3 31.101 3 Z" opacity="0.93" stroke-opacity="0" stroke-miterlimit="10"/></g><g><path fill="#FFFFFF" stroke="rgb(0,0,0)" d="M 59.176 72.104 C 59.176 58.424 51.738 49.723 38.495 47.449 C 36.987 47.93 35.413 48.255 33.794 48.434 L 33.357 50.65 L 31.1 50.65 L 28.842 50.65 L 28.405 48.434 C 26.807 48.256 25.249 47.94 23.759 47.465 C 10.642 49.793 3.026 58.635 3.026 72.102 L 3.005 72.452 C 3.026 72.604 3.126 72.964 3.583 73.454 C 4.948 74.918 10.362 78.321 31.101 78.321 C 52.57 78.321 57.642 74.748 58.828 73.212 C 59.102 72.855 59.226 72.487 59.226 72.487 L 59.176 72.104 Z M 31.101 72.987 L 26.484 68.696 L 28.843 53.569 L 31.101 53.569 L 33.359 53.569 L 35.718 68.696 L 31.101 72.987 Z" opacity="0.93" stroke-opacity="0" stroke-miterlimit="10"/></g><g><path fill="#FFFFFF" stroke="rgb(0,0,0)" d="M 31.101 50.65 L 33.359 50.65 L 33.797 48.435 C 32.91 48.534 32.015 48.601 31.102 48.601 C 30.19 48.601 29.294 48.534 28.408 48.435 L 28.845 50.65 L 31.101 50.65 Z" opacity="0.25" stroke-opacity="0" stroke-miterlimit="10"/></g><g><path fill="#FFFFFF" stroke="rgb(0,0,0)" d="M 31.101 53.57 L 28.843 53.57 L 26.484 68.696 L 31.101 72.987 L 35.718 68.696 L 33.359 53.57 L 31.101 53.57 Z" opacity="0.25" stroke-opacity="0" stroke-miterlimit="10"/></g></g></g></g></g><g transform="translate(0.5,0.5) matrix(1,0,0,1,392.0000000000001,115)"><g><g transform="translate(0,0) scale(5.587110916056036,5.557121653476081) translate(0.00001011521,0)"><g><path fill="#fce5cd" stroke="rgb(0,0,0)" d="M 30.957 0 L 30.957 0.005 C 30.958 0.005 30.959 0 30.961 0 C 30.96 0 30.957 0 30.957 0 Z M 30.571 0.016 C 30.567 0.016 30.564 0.021 30.561 0.021 C 30.575 0.02 30.588 0.017 30.602 0.016 C 30.599 0.016 30.595 0.016 30.592 0.016 C 30.584 0.016 30.579 0.015 30.571 0.016 Z M 32.44 0.026 C 32.466 0.028 32.495 0.029 32.522 0.031 C 32.495 0.029 32.466 0.028 32.44 0.026 Z M 32.522 0.031 C 39.434 0.58 44.876 6.375 44.876 13.427 C 44.876 20.607 39.228 26.464 32.138 26.828 L 32.138 29.579 C 34.074 29.885 35.556 31.566 35.556 33.586 C 35.556 34.082 35.466 34.555 35.304 34.992 L 37.82 36.444 C 41.707 30.573 49.548 28.657 55.726 32.225 C 61.892 35.784 64.167 43.505 61.06 49.798 C 65.325 41.495 62.359 31.204 54.187 26.486 C 52.142 25.306 49.964 24.586 47.761 24.289 C 48.605 22.233 49.07 19.982 49.07 17.622 C 49.069 8.258 41.75 0.59 32.522 0.031 Z M 30.269 0.041 C 21.087 0.647 13.814 8.291 13.814 17.625 C 13.814 19.918 14.252 22.11 15.051 24.118 C 12.914 24.431 10.795 25.143 8.81 26.289 C 0.692 30.975 -2.282 41.158 1.86 49.431 C -1.13 43.168 1.163 35.549 7.275 32.022 C 13.493 28.432 21.388 30.395 25.249 36.354 L 27.677 34.953 C 27.524 34.526 27.446 34.067 27.446 33.589 C 27.446 31.653 28.803 30.034 30.618 29.631 L 30.618 26.824 C 23.59 26.394 18.013 20.564 18.013 13.428 C 18.012 6.407 23.401 0.636 30.269 0.041 Z M 31.054 16.917 C 27.507 16.999 24.237 18.206 21.554 20.171 C 21.768 20.488 21.999 20.795 22.242 21.09 C 22.485 21.384 22.742 21.667 23.012 21.937 C 23.282 22.207 23.564 22.464 23.859 22.707 C 24.076 22.886 24.308 23.047 24.537 23.21 C 26.518 21.91 28.889 21.147 31.445 21.147 C 34.001 21.147 36.368 21.91 38.349 23.21 C 38.578 23.047 38.81 22.886 39.025 22.707 C 39.32 22.464 39.603 22.207 39.873 21.937 C 40.143 21.667 40.4 21.385 40.643 21.09 C 40.886 20.795 41.116 20.489 41.331 20.171 C 38.551 18.135 35.141 16.917 31.446 16.917 C 31.359 16.917 31.271 16.916 31.184 16.917 C 31.14 16.918 31.096 16.916 31.054 16.917 Z M 14.887 31.719 C 14.514 35.145 15.164 38.707 17.012 41.907 C 18.86 45.107 21.619 47.456 24.772 48.846 C 24.94 48.502 25.09 48.147 25.224 47.789 C 25.357 47.431 25.474 47.069 25.573 46.7 C 25.672 46.332 25.756 45.959 25.819 45.582 C 25.865 45.305 25.89 45.024 25.917 44.744 C 23.8 43.68 21.955 42.006 20.677 39.791 C 19.399 37.578 18.873 35.146 19.009 32.78 C 18.753 32.664 18.497 32.545 18.234 32.446 C 17.876 32.313 17.515 32.196 17.146 32.097 C 16.777 31.997 16.404 31.919 16.027 31.856 C 15.65 31.793 15.269 31.747 14.887 31.719 Z M 48.114 31.918 C 47.731 31.945 47.35 31.993 46.975 32.058 C 46.598 32.121 46.225 32.2 45.856 32.299 C 45.487 32.398 45.121 32.514 44.762 32.648 C 44.499 32.747 44.248 32.87 43.992 32.987 C 44.128 35.352 43.601 37.785 42.324 39.999 C 41.046 42.212 39.2 43.882 37.084 44.946 C 37.111 45.226 37.135 45.507 37.182 45.783 C 37.244 46.16 37.324 46.533 37.422 46.902 C 37.522 47.271 37.637 47.637 37.772 47.995 C 37.905 48.353 38.055 48.703 38.223 49.048 C 41.376 47.657 44.137 45.314 45.983 42.113 C 47.832 38.912 48.487 35.344 48.114 31.918 Z M 28.446 36.25 L 26.003 37.668 C 29.144 43.969 26.886 51.715 20.706 55.282 C 14.557 58.832 6.756 56.965 2.85 51.161 C 7.918 58.971 18.283 61.531 26.439 56.822 C 28.415 55.681 30.081 54.211 31.418 52.526 C 32.779 54.297 34.505 55.836 36.561 57.022 C 44.727 61.735 55.104 59.166 60.165 51.335 C 56.266 57.163 48.454 59.048 42.294 55.491 C 36.076 51.901 33.829 44.081 37.059 37.759 L 34.518 36.29 C 33.776 37.117 32.698 37.641 31.499 37.641 C 30.283 37.642 29.189 37.101 28.446 36.25 Z" stroke-opacity="0" stroke-miterlimit="10"/></g></g></g></g><g transform="translate(0,0) matrix(1,0,0,1,375,100)"><g><g transform="translate(0,0) scale(3.9,3.6)"><g><path fill="rgb(255,255,255)" stroke="none" d="M 0 0 L 100 0 Q 100 0 100 0 L 100 100 Q 100 100 100 100 L 0 100 Q 0 100 0 100 L 0 0 Q 0 0 0 0 Z" fill-opacity="0.008"/><g transform="scale(0.25641025641025644,0.2777777777777778)"><path fill="none" stroke="none" d="M 0 0 L 390 0 Q 390 0 390 0 L 390 360 Q 390 360 390 360 L 0 360 Q 0 360 0 360 L 0 0 Q 0 0 0 0 Z"/><path fill="none" stroke="#b45f06" d="M 0 0 M 0 0 L 24 0 M 24 0 M 36 0 L 60 0 M 60 0 M 72 0 L 96 0 M 96 0 M 108 0 L 132 0 M 132 0 M 144 0 L 168 0 M 168 0 M 180 0 L 204 0 M 204 0 M 216 0 L 240 0 M 240 0 M 252 0 L 276 0 M 276 0 M 288 0 L 312 0 M 312 0 M 324 0 L 348 0 M 348 0 M 360 0 L 384 0 M 384 0 M 390 6 L 390 30 M 390 30 M 390 42 L 390 66 M 390 66 M 390 78 L 390 102 M 390 102 M 390 114 L 390 138 M 390 138 M 390 150 L 390 174 M 390 174 M 390 186 L 390 210 M 390 210 M 390 222 L 390 246 M 390 246 M 390 258 L 390 282 M 390 282 M 390 294 L 390 318 M 390 318 M 390 330 L 390 354 M 390 354 M 384 360 L 360 360 M 360 360 M 348 360 L 324 360 M 324 360 M 312 360 L 288 360 M 288 360 M 276 360 L 252 360 M 252 360 M 240 360 L 216 360 M 216 360 M 204 360 L 180 360 M 180 360 M 168 360 L 144 360 M 144 360 M 132 360 L 108 360 M 108 360 M 96 360 L 72 360 M 72 360 M 60 360 L 36 360 M 36 360 M 24 360 L 0 360 M 0 360 M 0 348 L 0 324 M 0 324 M 0 312 L 0 288 M 0 288 M 0 276 L 0 252 M 0 252 M 0 240 L 0 216 M 0 216 M 0 204 L 0 180 M 0 180 M 0 168 L 0 144 M 0 144 M 0 132 L 0 108 M 0 108 M 0 96 L 0 72 M 0 72 M 0 60 L 0 36 M 0 36 M 0 24 L 0 0 M 0 0 Z" stroke-miterlimit="10" stroke-width="6"/></g></g></g></g></g><g transform="matrix(1,0,0,1,379,186)"><g><g><rect fill="rgb(0,0,0)" stroke="none" x="0" y="0" width="383" height="189" fill-opacity="0"/></g></g><g><g><rect fill="rgb(0,0,0)" stroke="none" x="0" y="0" width="383" height="54" fill-opacity="0"/></g></g><g><g><rect fill="rgb(0,0,0)" stroke="none" x="92.33332824707031" y="-0.8000030517578125" width="198" height="56" fill-opacity="0"/></g></g><g><g><rect fill="rgb(0,0,0)" stroke="none" x="92.33332824707031" y="-0.8000030517578125" width="192" height="56" fill-opacity="0"/></g><text fill="rgb(180, 95, 6)" stroke="none" font-family="&quot;Arial&quot;" font-size="24px" font-style="normal" font-weight="700" text-decoration="" line-height="27px" x="98.56666564941406" y="21.199996948242188">iframe</text><text fill="rgb(180, 95, 6)" stroke="none" font-family="&quot;Arial&quot;" font-size="24px" font-style="normal" font-weight="700" text-decoration="" line-height="27px" x="194.63333129882812" y="21.199996948242188">origin</text><text fill="rgb(180, 95, 6)" stroke="none" font-family="&quot;Arial&quot;" font-size="24px" font-style="normal" font-weight="700" text-decoration="" line-height="27px" x="275.29998779296875" y="21.199996948242188">:</text><text fill="rgb(180, 95, 6)" stroke="none" font-family="&quot;Arial&quot;" font-size="24px" font-style="normal" font-weight="700" text-decoration="" line-height="27px" x="92.33332824707031" y="48.19999694824219">myappcdn</text><text fill="rgb(180, 95, 6)" stroke="none" font-family="&quot;Arial&quot;" font-size="24px" font-style="normal" font-weight="700" text-decoration="" line-height="27px" x="230.1999969482422" y="48.19999694824219">.</text><text fill="rgb(180, 95, 6)" stroke="none" font-family="&quot;Arial&quot;" font-size="24px" font-style="normal" font-weight="700" text-decoration="" line-height="27px" x="238.26666259765625" y="48.19999694824219">net</text></g><g><g><rect fill="rgb(0,0,0)" stroke="none" x="282.26666259765625" y="26.199996948242188" width="8" height="29" fill-opacity="0"/></g></g><g><g><rect fill="rgb(0,0,0)" stroke="none" x="282.26666259765625" y="26.199996948242188" width="8" height="29" fill-opacity="0"/></g></g><g><g><rect fill="rgb(0,0,0)" stroke="none" x="0" y="54" width="383" height="27" fill-opacity="0"/></g></g><g><g><rect fill="rgb(0,0,0)" stroke="none" x="187.3000030517578" y="53.19999694824219" width="8" height="29" fill-opacity="0"/></g></g><g><g><rect fill="rgb(0,0,0)" stroke="none" x="187.3000030517578" y="53.19999694824219" width="8" height="29" fill-opacity="0"/></g></g><g><g><rect fill="rgb(0,0,0)" stroke="none" x="0" y="81" width="383" height="27" fill-opacity="0"/></g></g><g><g><rect fill="rgb(0,0,0)" stroke="none" x="187.3000030517578" y="80.19999694824219" width="8" height="29" fill-opacity="0"/></g></g><g><g><rect fill="rgb(0,0,0)" stroke="none" x="187.3000030517578" y="80.19999694824219" width="8" height="29" fill-opacity="0"/></g></g><g><g><rect fill="rgb(0,0,0)" stroke="none" x="0" y="108" width="383" height="27" fill-opacity="0"/></g></g><g><g><rect fill="rgb(0,0,0)" stroke="none" x="187.3000030517578" y="107.19999694824219" width="8" height="29" fill-opacity="0"/></g></g><g><g><rect fill="rgb(0,0,0)" stroke="none" x="187.3000030517578" y="107.19999694824219" width="8" height="29" fill-opacity="0"/></g></g><g><g/></g><g><g><rect fill="rgb(0,0,0)" stroke="none" x="0" y="135" width="383" height="54" fill-opacity="0"/></g></g><g><g><rect fill="rgb(0,0,0)" stroke="none" x="28.166671752929688" y="145.1999969482422" width="326" height="42" fill-opacity="0"/></g></g><g><g><rect fill="rgb(0,0,0)" stroke="none" x="28.166671752929688" y="145.1999969482422" width="326" height="42" fill-opacity="0"/></g></g><g><g><rect fill="rgb(0,0,0)" stroke="none" x="28.166671752929688" y="134.1999969482422" width="326" height="56" fill-opacity="0"/></g><text fill="rgb(180, 95, 6)" stroke="none" font-family="&quot;Arial&quot;" font-size="24px" font-style="normal" font-weight="700" text-decoration="" line-height="27px" x="28.166671752929688" y="156.1999969482422">User</text><text fill="rgb(180, 95, 6)" stroke="none" font-family="&quot;Arial&quot;" font-size="24px" font-style="normal" font-weight="700" text-decoration="" line-height="27px" x="98.56666564941406" y="156.1999969482422">Generated</text><text fill="rgb(180, 95, 6)" stroke="none" font-family="&quot;Arial&quot;" font-size="24px" font-style="normal" font-weight="700" text-decoration="" line-height="27px" x="246.6999969482422" y="156.1999969482422">Content</text><text fill="rgb(180, 95, 6)" stroke="none" font-family="&quot;Arial&quot;" font-size="24px" font-style="normal" font-weight="700" text-decoration="" line-height="27px" x="126.05000305175781" y="183.1999969482422">goes</text><text fill="rgb(180, 95, 6)" stroke="none" font-family="&quot;Arial&quot;" font-size="24px" font-style="normal" font-weight="700" text-decoration="" line-height="27px" x="195.71665954589844" y="183.1999969482422">here</text></g><g><g/></g></g></g></svg>